<?xml version="1.0" encoding="UTF-8" standalone="no"?>
<!-- Created with Inkscape (http://www.inkscape.org/) -->
<svg
   xmlns:dc="http://purl.org/dc/elements/1.1/"
   xmlns:cc="http://creativecommons.org/ns#"
   xmlns:rdf="http://www.w3.org/1999/02/22-rdf-syntax-ns#"
   xmlns:svg="http://www.w3.org/2000/svg"
   xmlns="http://www.w3.org/2000/svg"
   xmlns:xlink="http://www.w3.org/1999/xlink"
   xmlns:sodipodi="http://sodipodi.sourceforge.net/DTD/sodipodi-0.dtd"
   xmlns:inkscape="http://www.inkscape.org/namespaces/inkscape"
   width="128"
   height="128"
   id="svg2"
   sodipodi:version="0.32"
   inkscape:version="0.46"
   version="1.0"
   sodipodi:docname="krb-expiring-ticket.svg"
   inkscape:output_extension="org.inkscape.output.svg.inkscape">
  <defs
     id="defs4">
    <linearGradient
       id="linearGradient4126"
       inkscape:collect="always">
      <stop
         id="stop4128"
         offset="0"
         style="stop-color:#000000;stop-opacity:1;" />
      <stop
         id="stop4130"
         offset="1"
         style="stop-color:#000000;stop-opacity:0;" />
    </linearGradient>
    <radialGradient
       inkscape:collect="always"
       xlink:href="#linearGradient4126"
       id="radialGradient3105"
       gradientUnits="userSpaceOnUse"
       gradientTransform="matrix(1,0,0,0.5,0,20)"
       cx="23.857143"
       cy="40.000000"
       fx="23.857143"
       fy="40.000000"
       r="17.142857" />
    <linearGradient
       y2="56.0523"
       x2="47.3197"
       y1="11.1133"
       x1="4.1914"
       gradientUnits="userSpaceOnUse"
       id="aigrd1">
      <stop
         id="stop6490"
         style="stop-color:#D4D4D4"
         offset="0" />
      <stop
         id="stop6492"
         style="stop-color:#E2E2E2"
         offset="0.3982" />
      <stop
         id="stop6494"
         style="stop-color:#FFFFFF"
         offset="1" />
    </linearGradient>
    <linearGradient
       inkscape:collect="always"
       xlink:href="#aigrd1"
       id="linearGradient3980"
       gradientUnits="userSpaceOnUse"
       x1="4.1914"
       y1="11.1133"
       x2="47.3197"
       y2="56.0523" />
    <linearGradient
       id="linearGradient3387">
      <stop
         style="stop-color:#eeeeec;stop-opacity:1;"
         offset="0"
         id="stop3389" />
      <stop
         style="stop-color:#babdb6;stop-opacity:1"
         offset="1"
         id="stop3391" />
    </linearGradient>
    <inkscape:perspective
       sodipodi:type="inkscape:persp3d"
       inkscape:vp_x="0 : 24 : 1"
       inkscape:vp_y="0 : 1000 : 0"
       inkscape:vp_z="48 : 24 : 1"
       inkscape:persp3d-origin="24 : 16 : 1"
       id="perspective84" />
    <linearGradient
       inkscape:collect="always"
       id="linearGradient7614">
      <stop
         style="stop-color:#babdb6;stop-opacity:1"
         offset="0"
         id="stop7616" />
      <stop
         id="stop7628"
         offset="0.4873454"
         style="stop-color:#ffffff;stop-opacity:1" />
      <stop
         style="stop-color:#d3d7cf;stop-opacity:1"
         offset="1"
         id="stop7618" />
    </linearGradient>
    <linearGradient
       inkscape:collect="always"
       id="linearGradient7604">
      <stop
         style="stop-color:#000000;stop-opacity:1;"
         offset="0"
         id="stop7606" />
      <stop
         style="stop-color:#000000;stop-opacity:0;"
         offset="1"
         id="stop7608" />
    </linearGradient>
    <linearGradient
       inkscape:collect="always"
       id="linearGradient7592">
      <stop
         style="stop-color:#ffffff;stop-opacity:1;"
         offset="0"
         id="stop7594" />
      <stop
         style="stop-color:#ffffff;stop-opacity:0;"
         offset="1"
         id="stop7596" />
    </linearGradient>
    <linearGradient
       inkscape:collect="always"
       id="linearGradient7582">
      <stop
         style="stop-color:#ffffff;stop-opacity:1;"
         offset="0"
         id="stop7584" />
      <stop
         style="stop-color:#ffffff;stop-opacity:0;"
         offset="1"
         id="stop7586" />
    </linearGradient>
    <linearGradient
       inkscape:collect="always"
       id="linearGradient7567">
      <stop
         style="stop-color:#000000;stop-opacity:1;"
         offset="0"
         id="stop7569" />
      <stop
         style="stop-color:#000000;stop-opacity:0;"
         offset="1"
         id="stop7571" />
    </linearGradient>
    <linearGradient
       inkscape:collect="always"
       id="linearGradient7557">
      <stop
         style="stop-color:#eeeeec;stop-opacity:1"
         offset="0"
         id="stop7559" />
      <stop
         style="stop-color:#eeeeec;stop-opacity:1"
         offset="1"
         id="stop7561" />
    </linearGradient>
    <linearGradient
       inkscape:collect="always"
       id="linearGradient7549">
      <stop
         style="stop-color:#ffffff;stop-opacity:1"
         offset="0"
         id="stop7551" />
      <stop
         style="stop-color:#eeeeec;stop-opacity:1"
         offset="1"
         id="stop7553" />
    </linearGradient>
    <linearGradient
       inkscape:collect="always"
       id="linearGradient7491">
      <stop
         style="stop-color:#eeeeec;stop-opacity:1"
         offset="0"
         id="stop7493" />
      <stop
         style="stop-color:#babdb6;stop-opacity:1"
         offset="1"
         id="stop7495" />
    </linearGradient>
    <linearGradient
       id="linearGradient6826"
       inkscape:collect="always">
      <stop
         id="stop6828"
         offset="0"
         style="stop-color:#babdb6;stop-opacity:1" />
      <stop
         id="stop6830"
         offset="1"
         style="stop-color:#eeeeec;stop-opacity:1" />
    </linearGradient>
    <linearGradient
       id="linearGradient2816"
       inkscape:collect="always">
      <stop
         id="stop2818"
         offset="0"
         style="stop-color:white;stop-opacity:1;" />
      <stop
         id="stop2820"
         offset="1"
         style="stop-color:white;stop-opacity:0;" />
    </linearGradient>
    <linearGradient
       id="linearGradient4542"
       inkscape:collect="always">
      <stop
         id="stop4544"
         offset="0"
         style="stop-color:#888a85;stop-opacity:1" />
      <stop
         id="stop4546"
         offset="1"
         style="stop-color:#888a85;stop-opacity:0" />
    </linearGradient>
    <linearGradient
       inkscape:collect="always"
       id="linearGradient6958">
      <stop
         style="stop-color:#000000;stop-opacity:1"
         offset="0"
         id="stop6960" />
      <stop
         style="stop-color:#888a85;stop-opacity:0;"
         offset="1"
         id="stop6962" />
    </linearGradient>
    <linearGradient
       inkscape:collect="always"
       xlink:href="#linearGradient7614"
       id="linearGradient6789"
       gradientUnits="userSpaceOnUse"
       gradientTransform="matrix(0,0.673693,-0.676136,0,37.10227,14.81577)"
       x1="6.7188582"
       y1="22.936218"
       x2="44.344444"
       y2="42.604996" />
    <linearGradient
       inkscape:collect="always"
       xlink:href="#linearGradient6958"
       id="linearGradient6791"
       gradientUnits="userSpaceOnUse"
       gradientTransform="matrix(0,0.625,-0.676136,0,37.10227,15.875)"
       x1="17"
       y1="45.248375"
       x2="17"
       y2="30.759407" />
    <linearGradient
       inkscape:collect="always"
       xlink:href="#linearGradient4542"
       id="linearGradient6798"
       gradientUnits="userSpaceOnUse"
       gradientTransform="matrix(0.727273,0,0,0.999999,12.27273,-34.84375)"
       x1="33.120464"
       y1="20.5"
       x2="22.328388"
       y2="20.5" />
    <linearGradient
       inkscape:collect="always"
       xlink:href="#linearGradient2816"
       id="linearGradient6834"
       gradientUnits="userSpaceOnUse"
       gradientTransform="matrix(0,0.673693,-0.676136,0,37.10227,14.81577)"
       x1="15.406166"
       y1="37.34367"
       x2="16.864777"
       y2="24.249567" />
    <radialGradient
       inkscape:collect="always"
       xlink:href="#linearGradient7604"
       id="radialGradient7610"
       cx="20"
       cy="46"
       fx="20"
       fy="46"
       r="8"
       gradientTransform="matrix(1,0,0,0.25,0,34.5)"
       gradientUnits="userSpaceOnUse" />
    <radialGradient
       inkscape:collect="always"
       xlink:href="#linearGradient7604"
       id="radialGradient7612"
       cx="20"
       cy="46"
       fx="20"
       fy="46"
       r="8"
       gradientTransform="matrix(1,0,0,0.25,0,34.5)"
       gradientUnits="userSpaceOnUse" />
    <radialGradient
       inkscape:collect="always"
       xlink:href="#linearGradient7557"
       id="radialGradient6179"
       gradientUnits="userSpaceOnUse"
       gradientTransform="matrix(2.736289,0,0,1.7281824,-10.415182,6.3274167)"
       cx="17.812502"
       cy="14.729167"
       fx="17.812502"
       fy="14.729167"
       r="9.500001" />
    <radialGradient
       inkscape:collect="always"
       xlink:href="#linearGradient7491"
       id="radialGradient6183"
       gradientUnits="userSpaceOnUse"
       gradientTransform="matrix(-4.3569478,-0.5220341,-3.2296069,-3.9253855,147.77063,40.83149)"
       cx="23.681061"
       cy="5.3414755"
       fx="23.681061"
       fy="5.3414755"
       r="5.055244" />
    <radialGradient
       inkscape:collect="always"
       xlink:href="#linearGradient7592"
       id="radialGradient6187"
       gradientUnits="userSpaceOnUse"
       gradientTransform="matrix(1,0,0,0.6206897,0,0.7823276)"
       cx="11.15625"
       cy="2.0625"
       fx="11.15625"
       fy="2.0625"
       r="0.90625" />
    <radialGradient
       inkscape:collect="always"
       xlink:href="#linearGradient7549"
       id="radialGradient6191"
       gradientUnits="userSpaceOnUse"
       gradientTransform="matrix(4.4798874,-0.9932527,5.8898903,5.0623815,-110.37231,3.9736362)"
       cx="24.090876"
       cy="5.052979"
       fx="24.090876"
       fy="5.052979"
       r="4.4921517" />
    <linearGradient
       inkscape:collect="always"
       xlink:href="#linearGradient7567"
       id="linearGradient6195"
       gradientUnits="userSpaceOnUse"
       gradientTransform="matrix(3.0931733,-0.6457122,2.5048865,1.7440116,-51.514585,18.888732)"
       x1="20.722668"
       y1="16.830494"
       x2="22.697027"
       y2="15.894469" />
    <radialGradient
       inkscape:collect="always"
       xlink:href="#linearGradient7582"
       id="radialGradient6201"
       gradientUnits="userSpaceOnUse"
       gradientTransform="matrix(1,0,0,0.6206897,0,0.7823276)"
       cx="11.15625"
       cy="2.0625"
       fx="11.15625"
       fy="2.0625"
       r="0.90625" />
    <linearGradient
       inkscape:collect="always"
       xlink:href="#linearGradient3387"
       id="linearGradient4572"
       x1="-136"
       y1="88"
       x2="-68"
       y2="24"
       gradientUnits="userSpaceOnUse"
       gradientTransform="translate(158.4469,-1.4303695)" />
    <linearGradient
       inkscape:collect="always"
       xlink:href="#linearGradient6826"
       id="linearGradient4609"
       gradientUnits="userSpaceOnUse"
       gradientTransform="matrix(0,0.673693,-0.676136,0,37.10227,14.81577)"
       x1="13.819278"
       y1="30.029789"
       x2="36.227631"
       y2="45.194965" />
    <linearGradient
       inkscape:collect="always"
       xlink:href="#linearGradient6958"
       id="linearGradient4611"
       gradientUnits="userSpaceOnUse"
       gradientTransform="matrix(0,0.625,-0.676136,0,37.10227,15.875)"
       x1="17"
       y1="45.248375"
       x2="17"
       y2="30.759407" />
    <linearGradient
       inkscape:collect="always"
       xlink:href="#linearGradient2816"
       id="linearGradient4613"
       gradientUnits="userSpaceOnUse"
       gradientTransform="matrix(0,0.673693,-0.676136,0,37.10227,14.81577)"
       x1="15.406166"
       y1="37.34367"
       x2="16.864777"
       y2="24.249567" />
    <linearGradient
       inkscape:collect="always"
       xlink:href="#linearGradient4542"
       id="linearGradient4615"
       gradientUnits="userSpaceOnUse"
       gradientTransform="matrix(0.727273,0,0,0.999999,12.27273,-34.84375)"
       x1="33.120464"
       y1="20.5"
       x2="22.328388"
       y2="20.5" />
  </defs>
  <sodipodi:namedview
     id="base"
     pagecolor="#ffffff"
     bordercolor="#666666"
     borderopacity="0.37647059"
     inkscape:pageopacity="0.0"
     inkscape:pageshadow="2"
     inkscape:zoom="2"
     inkscape:cx="56.848204"
     inkscape:cy="65.598266"
     inkscape:document-units="px"
     inkscape:current-layer="layer1"
     width="48px"
     height="48px"
     inkscape:showpageshadow="false"
     inkscape:window-width="1366"
     inkscape:window-height="719"
     inkscape:window-x="0"
     inkscape:window-y="0"
     inkscape:snap-bbox="true"
     gridtolerance="10000"
     showborder="false"
     showgrid="false"
     borderlayer="false">
    <inkscape:grid
       type="xygrid"
       id="grid6206"
       spacingx="0.5px"
       spacingy="0.5px"
       empspacing="2"
       visible="true"
       enabled="true" />
    <inkscape:grid
       id="GridFromPre046Settings"
       type="xygrid"
       originx="0px"
       originy="0px"
       spacingx="0.5px"
       spacingy="0.5px"
       color="#0000ff"
       empcolor="#0000ff"
       opacity="0.2"
       empopacity="0.4"
       empspacing="2"
       visible="true"
       enabled="true" />
  </sodipodi:namedview>
  <metadata
     id="metadata7">
    <rdf:RDF>
      <cc:Work
         rdf:about="">
        <dc:format>image/svg+xml</dc:format>
        <dc:type
           rdf:resource="http://purl.org/dc/dcmitype/StillImage" />
        <dc:creator>
          <cc:Agent>
            <dc:title>Lapo Calamandrei</dc:title>
          </cc:Agent>
        </dc:creator>
        <cc:license
           rdf:resource="http://creativecommons.org/licenses/GPL/2.0/" />
        <dc:contributor>
          <cc:Agent>
            <dc:title>Ulisse Perusin</dc:title>
          </cc:Agent>
        </dc:contributor>
        <dc:title>Keys</dc:title>
        <dc:subject>
          <rdf:Bag>
            <rdf:li>keys</rdf:li>
            <rdf:li>key</rdf:li>
            <rdf:li>password</rdf:li>
            <rdf:li>authentication</rdf:li>
          </rdf:Bag>
        </dc:subject>
      </cc:Work>
    </rdf:RDF>
  </metadata>
  <g
     inkscape:label="Livello 1"
     inkscape:groupmode="layer"
     id="layer1">
    <path
       sodipodi:type="arc"
       style="opacity:0.16289595;fill:url(#radialGradient7612);fill-opacity:1;fill-rule:evenodd;stroke:none;stroke-width:1;stroke-linecap:round;stroke-linejoin:miter;marker:none;marker-start:none;marker-mid:none;marker-end:none;stroke-miterlimit:4;stroke-dasharray:none;stroke-dashoffset:0.67741674;stroke-opacity:1;visibility:visible;display:inline;overflow:visible;enable-background:accumulate"
       id="path7600"
       sodipodi:cx="20"
       sodipodi:cy="46"
       sodipodi:rx="8"
       sodipodi:ry="2"
       d="M 28,46 A 8,2 0 1 1 12,46 A 8,2 0 1 1 28,46 z"
       transform="matrix(3.2493431,0,0,4.7885057,16.263635,-104.34827)" />
    <path
       sodipodi:type="arc"
       style="opacity:0.16289595;fill:url(#radialGradient7610);fill-opacity:1;fill-rule:evenodd;stroke:none;stroke-width:1;stroke-linecap:round;stroke-linejoin:miter;marker:none;marker-start:none;marker-mid:none;marker-end:none;stroke-miterlimit:4;stroke-dasharray:none;stroke-dashoffset:0.67741674;stroke-opacity:1;visibility:visible;display:inline;overflow:visible;enable-background:accumulate"
       id="path7602"
       sodipodi:cx="20"
       sodipodi:cy="46"
       sodipodi:rx="8"
       sodipodi:ry="2"
       d="M 28,46 A 8,2 0 1 1 12,46 A 8,2 0 1 1 28,46 z"
       transform="matrix(3.9516112,0,0,4.7885057,-39.14511,-99.34827)" />
    <path
       sodipodi:nodetypes="css"
       id="use6159"
       d="M 56.025123,34.976972 C 49.195398,36.402705 34.113824,30.918623 22.360897,22.735721 C 10.607969,14.552819 6.6123281,6.7545075 13.442053,5.3287751"
       style="fill:none;fill-opacity:1;fill-rule:evenodd;stroke:#babdb6;stroke-width:8.20886707;stroke-linecap:round;stroke-linejoin:miter;stroke-miterlimit:4;stroke-dashoffset:0.69999992;stroke-opacity:1" />
    <path
       id="use6161"
       d="M 47.106283,17.570023 C 58.85921,25.752926 62.854851,33.55124 56.025123,34.976972 C 49.195398,36.402705 34.113824,30.918623 22.360897,22.735721 C 10.607969,14.552819 6.6123281,6.7545075 13.442053,5.3287751 C 20.271781,3.9030427 35.353355,9.3871212 47.106283,17.570023 z"
       style="fill:none;fill-opacity:1;fill-rule:evenodd;stroke:url(#radialGradient6179);stroke-width:2.73628902;stroke-linecap:round;stroke-linejoin:miter;stroke-miterlimit:4;stroke-dashoffset:0.69999992;stroke-opacity:1" />
    <rect
       style="opacity:1;fill:url(#linearGradient4572);fill-opacity:1;fill-rule:evenodd;stroke:#888a85;stroke-width:3;stroke-linecap:round;stroke-linejoin:round;marker:none;marker-start:none;marker-mid:none;marker-end:none;stroke-miterlimit:4;stroke-dasharray:none;stroke-dashoffset:0;stroke-opacity:1;visibility:visible;display:inline;overflow:visible;enable-background:accumulate"
       id="rect3474"
       width="67"
       height="100"
       x="31.446913"
       y="-0.43036848"
       ry="3.2703688"
       transform="matrix(0.9642932,0.2648369,-0.2648369,0.9642932,0,0)" />
    <path
       transform="matrix(3.0193534,0,0,4.8645138,-3.2001327,17.441913)"
       d="M 12.0625,2.0625 A 0.90625,0.5625 0 1 1 10.25,2.0625 A 0.90625,0.5625 0 1 1 12.0625,2.0625 z"
       sodipodi:ry="0.5625"
       sodipodi:rx="0.90625"
       sodipodi:cy="2.0625"
       sodipodi:cx="11.15625"
       id="use6173"
       style="fill:url(#radialGradient6201);fill-opacity:1;fill-rule:evenodd;stroke:none;stroke-width:1;stroke-linecap:round;stroke-linejoin:miter;marker:none;marker-start:none;marker-mid:none;marker-end:none;stroke-miterlimit:4;stroke-dasharray:none;stroke-dashoffset:0.67741674;stroke-opacity:1;visibility:visible;display:inline;overflow:visible;enable-background:accumulate"
       sodipodi:type="arc" />
    <path
       transform="matrix(1.2082591,0.3318405,-0.3318405,1.2082591,317.97598,69.660764)"
       d="M -200,28 A 8,8 0 1 1 -216,28 A 8,8 0 1 1 -200,28 z"
       sodipodi:ry="8"
       sodipodi:rx="8"
       sodipodi:cy="28"
       sodipodi:cx="-208"
       id="path4546"
       style="opacity:1;fill:none;fill-opacity:1;fill-rule:evenodd;stroke:#ffffff;stroke-width:2.39425445;stroke-linecap:round;stroke-linejoin:round;marker:none;marker-start:none;marker-mid:none;marker-end:none;stroke-miterlimit:4;stroke-dasharray:none;stroke-dashoffset:0;stroke-opacity:1;visibility:visible;display:inline;overflow:visible;enable-background:accumulate"
       sodipodi:type="arc" />
    <path
       sodipodi:type="arc"
       style="opacity:1;fill:#ffffff;fill-opacity:1;fill-rule:evenodd;stroke:#888a85;stroke-width:3.28979206;stroke-linecap:round;stroke-linejoin:round;marker:none;marker-start:none;marker-mid:none;marker-end:none;stroke-miterlimit:4;stroke-dasharray:none;stroke-dashoffset:0;stroke-opacity:1;visibility:visible;display:inline;overflow:visible;enable-background:accumulate"
       id="path3494"
       sodipodi:cx="-208"
       sodipodi:cy="28"
       sodipodi:rx="8"
       sodipodi:ry="8"
       d="M -200,28 A 8,8 0 1 1 -216,28 A 8,8 0 1 1 -200,28 z"
       transform="matrix(0.8793504,0.2415079,-0.2415079,0.8793504,247.03365,60.081022)" />
    <rect
       ry="2.9515269"
       y="2.5330143"
       x="34.246914"
       height="94.072777"
       width="61.399998"
       id="rect4548"
       style="opacity:1;fill:none;fill-opacity:1;fill-rule:evenodd;stroke:#ffffff;stroke-width:3.00000024;stroke-linecap:round;stroke-linejoin:round;marker:none;marker-start:none;marker-mid:none;marker-end:none;stroke-miterlimit:4;stroke-dasharray:none;stroke-dashoffset:0;stroke-opacity:1;visibility:visible;display:inline;overflow:visible;enable-background:accumulate"
       rx="0"
       transform="matrix(0.9642932,0.2648369,-0.2648369,0.9642932,0,0)" />
    <path
       id="rect4774"
       style="opacity:0.15;fill:#000000;fill-opacity:1;fill-rule:evenodd;stroke:#000000;stroke-width:3.0210619;stroke-linecap:butt;stroke-linejoin:miter;stroke-miterlimit:4;stroke-dashoffset:0;stroke-opacity:1;marker:none;marker-start:none;marker-mid:none;marker-end:none;visibility:visible;display:inline;overflow:visible;enable-background:accumulate"
       d="M 59.05279,77.077641 L 62.295609,78.502189 L 62.166014,79.016108 L 58.923196,77.59156 L 59.05279,77.077641 zM 63.654051,78.886032 L 60.217921,85.88979 L 61.114211,89.23479 L 68.700504,90.78721 L 69.596795,94.13221 L 63.803081,99.26979 L 64.699371,102.61479 L 71.06131,106.28786 L 67.388241,112.64979 L 70.034531,114.4948 L 77.939618,116.94407 L 82.30212,115.95335 L 82.802686,112.03955 C 70.28389,90.121849 80.622461,68.038789 63.654051,78.886032 z M 59.873241,22.547128 C 58.262768,22.647876 56.637809,22.877652 54.999226,23.316709 C 41.890557,26.829166 34.055615,40.26907 37.555384,53.330379 C 40.08131,62.75725 47.677882,69.631278 56.709406,71.287275 L 57.222461,73.026992 L 58.676114,67.725432 C 67.638533,66.020338 75.404704,59.280984 77.915646,49.910017 C 80.701267,39.513923 76.699095,29.146499 68.338635,23.573236 C 65.656311,22.736308 62.813443,22.363195 59.873241,22.547128 z M 57.564497,26.651561 C 58.023761,26.679053 58.471032,26.7844 58.932641,26.908088 C 61.875405,27.696599 63.876475,30.268684 64.063183,33.150248 C 64.417428,33.717784 64.736192,34.351908 64.918273,35.031446 C 65.907778,38.724328 63.737138,42.507335 60.044259,43.49684 C 56.351377,44.486348 52.56837,42.315705 51.578865,38.622826 C 51.462643,38.189085 51.353452,37.772163 51.322338,37.34019 C 51.309592,37.320278 51.334878,37.274722 51.322338,37.254681 C 50.33784,35.681526 49.949407,33.714711 50.467247,31.782103 C 51.333061,28.55083 54.349645,26.459113 57.564497,26.651561 z" />
    <g
       id="g6765"
       transform="matrix(3.3450011,-0.8962903,0.8962903,3.3450011,-4.7652954,-22.544592)">
      <path
         id="path6767"
         d="M 13.4375,16.5 C 9.5186162,16.499999 6.34375,19.657775 6.34375,23.5625 C 6.3437502,26.380698 7.9483759,28.863095 10.34375,30 L 10.34375,31.5 L 11.84375,33 L 10.34375,34.5 L 10.34375,35.5 L 12.34375,36.5 L 12.34375,37.5 L 10.34375,38.5 L 10.34375,39.5 L 11.84375,41 L 10.34375,42.5 L 10.34375,43.5 L 12.84375,45.5 L 15.34375,45.5 L 16.34375,44 L 16.34375,30 C 18.716179,28.854566 20.34375,26.301484 20.34375,23.5 C 20.34375,19.595276 17.356384,16.5 13.4375,16.5 z M 13.34375,18.5 C 14.44775,18.5 15.34375,19.396 15.34375,20.5 C 15.34375,21.604 14.44775,22.5 13.34375,22.5 C 12.23975,22.5 11.34375,21.604 11.34375,20.5 C 11.34375,19.396 12.23975,18.5 13.34375,18.5 z"
         style="fill:url(#linearGradient6789);fill-opacity:1;fill-rule:evenodd;stroke:#888a85;stroke-width:0.79014969;stroke-linecap:round;stroke-linejoin:miter;stroke-miterlimit:4;stroke-dasharray:none;stroke-opacity:1"
         sodipodi:nodetypes="csccccccccccccccccsccsssc" />
      <path
         id="path6769"
         d="M 18.846598,24 L 8.028422,24 C 8.028422,26.76 10.451693,29 13.43751,29 C 16.423327,29 18.846598,26.76 18.846598,24 z"
         style="opacity:0.3;fill:url(#linearGradient6791);fill-opacity:1;fill-rule:evenodd;stroke:none;stroke-width:1.0274241;stroke-linecap:round;stroke-linejoin:miter;stroke-miterlimit:4;stroke-dasharray:none;stroke-opacity:1" />
      <path
         d="M 13.4375,17.28125 C 9.9358164,17.281249 7.125,20.078754 7.125,23.5625 C 7.1250002,26.085898 8.5663689,28.305758 10.6875,29.3125 C 10.951494,29.440624 11.120744,29.706589 11.125,30 L 11.125,31.15625 L 12.40625,32.4375 C 12.560213,32.584102 12.647354,32.787405 12.647354,33 C 12.647354,33.212595 12.560213,33.415898 12.40625,33.5625 L 11.125,34.84375 L 11.125,35.03125 L 12.6875,35.8125 C 12.951494,35.940624 13.120744,36.206589 13.125,36.5 L 13.125,37.5 C 13.120744,37.793411 12.951494,38.059376 12.6875,38.1875 L 11.125,38.96875 L 11.125,39.15625 L 12.40625,40.4375 C 12.560213,40.584102 12.647354,40.787405 12.647354,41 C 12.647354,41.212595 12.560213,41.415898 12.40625,41.5625 L 11.125,42.84375 L 11.125,43.125 L 13.125,44.71875 L 14.90625,44.71875 L 15.5625,43.75 L 15.5625,30 C 15.566756,29.706589 15.736006,29.440624 16,29.3125 C 18.090762,28.303058 19.5625,26.000684 19.5625,23.5 C 19.5625,19.991393 16.947441,17.28125 13.4375,17.28125 z M 13.34375,17.71875 C 14.867958,17.71875 16.125,18.975792 16.125,20.5 C 16.125,22.024208 14.867958,23.28125 13.34375,23.28125 C 11.819542,23.28125 10.5625,22.024208 10.5625,20.5 C 10.5625,18.975792 11.819542,17.71875 13.34375,17.71875 z"
         inkscape:href="#path1884"
         id="path6771"
         style="opacity:1;fill:none;fill-opacity:1;fill-rule:evenodd;stroke:#ffffff;stroke-width:0.79014969;stroke-linecap:round;stroke-linejoin:miter;stroke-miterlimit:4;stroke-dasharray:none;stroke-opacity:1"
         xlink:href="#path1884"
         inkscape:original="M 13.4375 16.5 C 9.5186162 16.499999 6.34375 19.657775 6.34375 23.5625 C 6.3437502 26.380698 7.9483759 28.863095 10.34375 30 L 10.34375 31.5 L 11.84375 33 L 10.34375 34.5 L 10.34375 35.5 L 12.34375 36.5 L 12.34375 37.5 L 10.34375 38.5 L 10.34375 39.5 L 11.84375 41 L 10.34375 42.5 L 10.34375 43.5 L 12.84375 45.5 L 15.34375 45.5 L 16.34375 44 L 16.34375 30 C 18.716179 28.854566 20.34375 26.301484 20.34375 23.5 C 20.34375 19.595276 17.356384 16.5 13.4375 16.5 z M 13.34375 18.5 C 14.44775 18.5 15.34375 19.396 15.34375 20.5 C 15.34375 21.604 14.44775 22.5 13.34375 22.5 C 12.23975 22.5 11.34375 21.604 11.34375 20.5 C 11.34375 19.396 12.23975 18.5 13.34375 18.5 z "
         inkscape:radius="-0.77663463"
         sodipodi:type="inkscape:offset" />
      <path
         sodipodi:type="inkscape:offset"
         inkscape:radius="-0.10364762"
         inkscape:original="M 13.40625 17.53125 C 13.179953 17.535742 12.940048 17.565361 12.71875 17.59375 C 11.746507 17.718472 10.844502 18.056009 10.0625 18.5625 C 10.273788 19.382459 10.603512 20.028723 11 20.59375 C 10.998818 20.562191 11 20.531846 11 20.5 C 11 19.119998 12.119999 18 13.5 18 C 14.880001 18 16 19.119998 16 20.5 C 16 21.880003 14.880001 23 13.5 23 C 13.338115 23 13.184591 22.966937 13.03125 22.9375 C 14.159156 24.243071 15.219875 25.922289 15.46875 29.3125 C 17.839227 28.416828 19.53125 26.324417 19.53125 23.5625 C 19.444481 20.923505 17.958879 18.870351 15.46875 17.84375 C 14.777284 17.614671 14.085142 17.517773 13.40625 17.53125 z M 15.46875 31.96875 C 15.356466 34.978468 14.778907 38.970391 13.4375 44.46875 L 14.78125 44.46875 L 15.46875 43.125 L 15.46875 31.96875 z "
         style="opacity:0.6;fill:url(#linearGradient6834);fill-opacity:1;fill-rule:evenodd;stroke:none;stroke-width:1;stroke-linecap:round;stroke-linejoin:miter;stroke-miterlimit:4;stroke-dasharray:none;stroke-opacity:1"
         id="path6832"
         d="M 13.40625,17.625 C 13.187538,17.629341 12.939695,17.659156 12.71875,17.6875 C 11.78621,17.807129 10.942882,18.147772 10.1875,18.625 C 10.361143,19.259817 10.61214,19.783079 10.90625,20.25 C 11.032204,18.930646 12.148103,17.90625 13.5,17.90625 C 14.936081,17.90625 16.09375,19.063918 16.09375,20.5 C 16.09375,21.936083 14.936081,23.09375 13.5,23.09375 C 13.422832,23.09375 13.35303,23.07256 13.28125,23.0625 C 14.340561,24.332754 15.303193,26.006767 15.5625,29.15625 C 17.828737,28.247206 19.4375,26.230684 19.4375,23.5625 C 19.35195,20.960576 17.896038,18.951077 15.4375,17.9375 C 14.757352,17.712171 14.073888,17.611746 13.40625,17.625 z M 15.375,34.6875 C 15.095565,37.273086 14.520442,40.429504 13.5625,44.375 L 14.71875,44.375 L 15.375,43.0625 L 15.375,34.6875 z" />
      <rect
         transform="matrix(0,1,-1,0,0,0)"
         y="-14.84375"
         x="29"
         height="0.98128641"
         width="16.311773"
         id="rect6776"
         style="opacity:0.61538463;fill:url(#linearGradient6798);fill-opacity:1;fill-rule:evenodd;stroke:none;stroke-width:1;stroke-linecap:round;stroke-linejoin:miter;stroke-miterlimit:4;stroke-dasharray:none;stroke-opacity:1" />
    </g>
    <path
       id="use6163"
       d="M 11.403737,12.338389 C 7.0526983,5.2401166 13.973192,2.9800842 26.85127,7.2936796 C 39.729349,11.607275 53.712404,20.869082 58.063443,27.967358 C 60.222492,31.489627 59.824425,33.749035 56.868478,34.749904"
       style="fill:none;fill-opacity:1;fill-rule:evenodd;stroke:url(#radialGradient6183);stroke-width:8.20886707;stroke-linecap:round;stroke-linejoin:miter;stroke-miterlimit:4;stroke-dashoffset:0.69999992;stroke-opacity:1" />
    <path
       transform="matrix(4.3537318,0,0,7.0143454,-27.458713,-8.8196256)"
       d="M 12.0625,2.0625 A 0.90625,0.5625 0 1 1 10.25,2.0625 A 0.90625,0.5625 0 1 1 12.0625,2.0625 z"
       sodipodi:ry="0.5625"
       sodipodi:rx="0.90625"
       sodipodi:cy="2.0625"
       sodipodi:cx="11.15625"
       id="use6165"
       style="fill:url(#radialGradient6187);fill-opacity:1;fill-rule:evenodd;stroke:none;stroke-width:1;stroke-linecap:round;stroke-linejoin:miter;marker:none;marker-start:none;marker-mid:none;marker-end:none;stroke-miterlimit:4;stroke-dasharray:none;stroke-dashoffset:0.67741674;stroke-opacity:1;visibility:visible;display:inline;overflow:visible;enable-background:accumulate"
       sodipodi:type="arc" />
    <path
       id="use6167"
       d="M 19.173263,20.377645 C 8.6375897,12.072392 7.0579273,5.2312018 15.647229,5.1071275 C 24.23653,4.9830532 39.758247,11.62285 50.293917,19.928103 C 60.668942,28.106714 62.394564,34.870903 54.187131,35.18892"
       style="fill:none;fill-opacity:1;fill-rule:evenodd;stroke:url(#radialGradient6191);stroke-width:2.73628902;stroke-linecap:round;stroke-linejoin:miter;stroke-miterlimit:4;stroke-dashoffset:0.69999992;stroke-opacity:1" />
    <path
       sodipodi:nodetypes="cc"
       id="use6169"
       d="M 50.292272,19.926806 C 60.668603,28.105863 62.395021,34.870884 54.187131,35.18892"
       style="opacity:0.10407242;fill:none;fill-opacity:1;fill-rule:evenodd;stroke:url(#linearGradient6195);stroke-width:2.73628902;stroke-linecap:round;stroke-linejoin:miter;stroke-miterlimit:4;stroke-dashoffset:0.69999992;stroke-opacity:1" />
    <path
       transform="matrix(3.0193534,0,0,4.8645138,-12.330201,-4.3251342)"
       d="M 12.0625,2.0625 A 0.90625,0.5625 0 1 1 10.25,2.0625 A 0.90625,0.5625 0 1 1 12.0625,2.0625 z"
       sodipodi:ry="0.5625"
       sodipodi:rx="0.90625"
       sodipodi:cy="2.0625"
       sodipodi:cx="11.15625"
       id="use6171"
       style="fill:#ffffff;fill-opacity:1;fill-rule:evenodd;stroke:none;stroke-width:1;stroke-linecap:round;stroke-linejoin:miter;marker:none;marker-start:none;marker-mid:none;marker-end:none;stroke-miterlimit:4;stroke-dasharray:none;stroke-dashoffset:0.67741674;stroke-opacity:1;visibility:visible;display:inline;overflow:visible;enable-background:accumulate"
       sodipodi:type="arc" />
    <path
       style="fill:none;fill-opacity:1;fill-rule:evenodd;stroke:#ffffff;stroke-width:3;stroke-linecap:round;stroke-linejoin:miter;stroke-miterlimit:1;stroke-dasharray:6, 6;stroke-dashoffset:0;stroke-opacity:1"
       d="M 44.72965,108.80061 L 21.667916,56.837585"
       id="path4576" />
    <path
       style="opacity:0.15;fill:none;fill-opacity:1;fill-rule:evenodd;stroke:#000000;stroke-width:3;stroke-linecap:round;stroke-linejoin:miter;stroke-miterlimit:1;stroke-dasharray:6, 6;stroke-dashoffset:0;stroke-opacity:1"
       d="M 44.057779,109.25701 L 20.996045,57.293983"
       id="path4782" />
    <path
       inkscape:r_cy="true"
       inkscape:r_cx="true"
       sodipodi:type="arc"
       style="opacity:0.5;fill:url(#radialGradient3105);fill-opacity:1;fill-rule:nonzero;stroke:none;stroke-width:1;stroke-linecap:butt;stroke-linejoin:miter;marker:none;marker-start:none;marker-mid:none;marker-end:none;stroke-miterlimit:10;stroke-dasharray:none;stroke-dashoffset:0;stroke-opacity:1;visibility:visible;display:block;overflow:visible"
       id="path6548"
       sodipodi:cx="23.857143"
       sodipodi:cy="40"
       sodipodi:rx="17.142857"
       sodipodi:ry="8.5714283"
       d="M 41,40 A 17.142857,8.5714283 0 1 1 6.7142868,40 A 17.142857,8.5714283 0 1 1 41,40 z"
       transform="matrix(1.4721843,0,0,0.6979902,49.623521,91.124627)" />
    <path
       style="fill:#ffd400;fill-opacity:1;fill-rule:nonzero;stroke:#f48c25;stroke-width:2.15441704;stroke-miterlimit:4;stroke-dasharray:none;stroke-opacity:1"
       d="M 111.53952,115.35838 L 87.978923,72.885445 C 87.301898,71.705643 86.083245,71.050199 84.72919,71.050199 C 83.375131,71.050199 82.156482,71.836728 81.479453,73.016535 L 58.46049,115.48946 C 57.918867,116.53818 57.918867,117.98016 58.595896,119.02888 C 59.272924,120.07759 60.356171,120.60195 61.710228,120.60195 L 108.28977,120.60195 C 109.64383,120.60195 110.86248,119.9465 111.40411,118.89778 C 112.08114,117.84907 112.08114,116.53818 111.53952,115.35838 z"
       id="path6485"
       inkscape:r_cx="true"
       inkscape:r_cy="true" />
    <g
       style="fill-rule:nonzero;stroke:#000000;stroke-miterlimit:4"
       transform="matrix(1.3540555,0,0,1.3108939,52.223623,64.912501)"
       id="g6487"
       inkscape:r_cx="true"
       inkscape:r_cy="true">
      <linearGradient
         id="linearGradient6525"
         gradientUnits="userSpaceOnUse"
         x1="4.1914001"
         y1="11.1133"
         x2="47.319698"
         y2="56.052299">
        <stop
           offset="0"
           style="stop-color:#D4D4D4"
           id="stop6527" />
        <stop
           offset="0.3982"
           style="stop-color:#E2E2E2"
           id="stop6529" />
        <stop
           offset="1"
           style="stop-color:#FFFFFF"
           id="stop6531" />
      </linearGradient>
      <path
         style="fill:url(#linearGradient3980);stroke:none"
         d="M 9.5,37.6 C 9.2,38.1 9.5,38.5 10,38.5 L 38.2,38.5 C 38.7,38.5 39,38.1 38.7,37.6 L 24.4,11 C 24.1,10.5 23.7,10.5 23.5,11 L 9.5,37.6 z"
         id="path6496"
         inkscape:r_cx="true"
         inkscape:r_cy="true" />
    </g>
    <g
       inkscape:r_cy="true"
       inkscape:r_cx="true"
       id="g6498"
       transform="matrix(1.1710163,0,0,1.1846989,57.012705,67.657229)"
       style="fill-rule:nonzero;stroke:#000000;stroke-miterlimit:4">
      <path
         inkscape:r_cy="true"
         inkscape:r_cx="true"
         id="path6500"
         d="M 23.9,36.5 C 22.6,36.5 21.6,35.5 21.6,34.2 C 21.6,32.8 22.5,31.9 23.9,31.9 C 25.3,31.9 26.1,32.8 26.2,34.2 C 26.2,35.5 25.3,36.5 23.9,36.5 L 23.9,36.5 z M 22.5,30.6 L 21.9,19.1 L 25.9,19.1 L 25.3,30.6 L 22.4,30.6 L 22.5,30.6 z"
         style="stroke:none" />
    </g>
  </g>
</svg>
